<svg xmlns="http://www.w3.org/2000/svg" viewBox="0 0 164.3 148.5"><defs><style>.cls-1{fill:#e7343f;}</style></defs><title>Element 1</title><g id="Ebene_2" data-name="Ebene 2"><g id="Ebene_1-2" data-name="Ebene 1"><path class="cls-1" d="M91,148.5v0H0V0H9.3V139.17l82.13,0C127.71,139,155,111.13,155,74.25c0-37-29.07-64.95-64-64.95H37.45V113.18H89.94c22.09,0,36.94-15.64,36.94-38.93S112,35.32,89.94,35.32H65.54V91.88h-9.3V26h33.7c27.22,0,46.23,19.83,46.23,48.23s-19,48.23-46.23,48.23H28.16V0H91c41.8,0,73.31,31.92,73.31,74.25S132.79,148.5,91,148.5Zm2.56-56.62H84.26V57.6h9.29Z"/></g></g></svg>